<?xml version="1.0" encoding="utf-8"?>
<!-- Generator: Adobe Illustrator 19.0.0, SVG Export Plug-In . SVG Version: 6.00 Build 0)  -->
<svg version="1.1" id="lm-icon-social" xmlns="http://www.w3.org/2000/svg" xmlns:xlink="http://www.w3.org/1999/xlink" x="0px"
	 y="0px" viewBox="-315 316.2 8.8 8.8" style="enable-background:new -315 316.2 8.8 8.8;" xml:space="preserve">
<style type="text/css">
	.st0{fill:#676767;}
</style>
<g>
	<path class="st0" d="M-306.6,317.8l-1.4,0.8l-2.7,1.7l-2.6-1.7l-1.3-0.8c-0.2,0.2-0.4,0.5-0.4,0.9v0.3v3.9c0,0.7,0.5,1.2,1.2,1.2
		h6.3c0.7,0,1.2-0.5,1.2-1.2v-3.9v-0.3C-306.3,318.3-306.4,318-306.6,317.8z M-307.4,322.8C-307.4,322.8-307.5,322.8-307.4,322.8
		l-6.3,0c0,0,0,0,0,0v-3.1l2.7,1.8c0.1,0.1,0.2,0.1,0.3,0.1c0.1,0,0.2,0,0.3-0.1l3-1.8V322.8z"/>
	<path class="st0" d="M-310.7,319.4c0.1,0,3.3-2,3.3-2c0,0-0.1,0-0.1,0h-6.3c0,0-0.1,0-0.1,0C-313.8,317.4-310.8,319.4-310.7,319.4z
		"/>
</g>
</svg>
