<?xml version="1.0" encoding="utf-8"?>
<!-- Generator: Adobe Illustrator 19.0.0, SVG Export Plug-In . SVG Version: 6.00 Build 0)  -->
<svg version="1.1" id="lm-icon-social" xmlns="http://www.w3.org/2000/svg" xmlns:xlink="http://www.w3.org/1999/xlink" x="0px"
	 y="0px" viewBox="-52 24.9 8.8 8.8" style="enable-background:new -52 24.9 8.8 8.8;" xml:space="preserve">
<style type="text/css">
	.lm-icon-linkedin{fill:#676767;}
</style>
<g>
	<rect x="-51.7" y="27.8" class="lm-icon-linkedin" width="1.8" height="5.7"/>
	<circle class="lm-icon-linkedin" cx="-50.8" cy="26.1" r="1"/>
	<path class="lm-icon-linkedin" d="M-44.6,27.8c-0.2-0.1-0.5-0.1-0.8-0.1c-0.8,0-1.5,0.3-1.8,0.9c0,0,0,0-0.1,0v-0.8h-1.7v5.7h1.8v-3
		c0,0,0-1.3,1.1-1.3c1,0,0.9,1.3,0.9,1.3v3h0c0,0,0,0,0-0.1l0-0.1c0,0.1,0,0.1,0,0.1h1.7v-3.8v0C-43.4,28.7-43.9,28.1-44.6,27.8z"/>
</g>
</svg>
