<?xml version="1.0" encoding="utf-8"?>
<!-- Generator: Adobe Illustrator 19.0.0, SVG Export Plug-In . SVG Version: 6.00 Build 0)  -->
<svg version="1.1" id="lm-icon-social" xmlns="http://www.w3.org/2000/svg" xmlns:xlink="http://www.w3.org/1999/xlink" x="0px"
	 y="0px" viewBox="-315 316.2 8.8 8.8" style="enable-background:new -315 316.2 8.8 8.8;" xml:space="preserve">
<style type="text/css">
	.st0{fill:#676767;}
</style>
<path id="XMLID_27_" class="st0" d="M-306.3,323c0,0.3,0,0.6,0,0.9c-1,0-2,0-3,0c0-0.3,0-0.6,0-0.9c0.2,0,0.4,0,0.6,0
	c0-1.5,0-2.9,0-4.3c0,0,0,0,0,0c-0.5,1.8-1,3.5-1.5,5.3c-0.4,0-0.7,0-1,0c-0.1,0-0.2-0.1-0.2-0.2c-0.5-1.6-0.9-3.3-1.4-4.9
	c0,0,0-0.1-0.1-0.2c0,1.5,0,2.9,0,4.3c0.2,0,0.4,0,0.6,0c0,0.3,0,0.6,0,1c-0.9,0-1.7,0-2.5,0c0-0.3,0-0.6,0-0.9c0,0,0,0,0,0
	c0.5,0,0.6-0.1,0.6-0.6c0-1.2,0-2.5,0-3.7c0-0.4,0-0.4-0.4-0.4c-0.1,0-0.1,0-0.2,0c0-0.3,0-0.7,0-1c1.1,0,2.1,0,3.2,0
	c0.3,1.3,0.7,2.6,1.1,3.9c0.4-1.3,0.7-2.5,1-3.8c0-0.1,0.1-0.1,0.2-0.1c1,0,2,0,3,0c0,0.3,0,0.7,0,1c-0.1,0-0.2,0-0.3,0
	c-0.2,0-0.3,0.1-0.3,0.3c0,0.2,0,0.3,0,0.5c0,1.1,0,2.2,0,3.3C-307,322.8-307,323-306.3,323z"/>
</svg>
