<?xml version="1.0" encoding="utf-8"?>
<!-- Generator: Adobe Illustrator 19.0.0, SVG Export Plug-In . SVG Version: 6.00 Build 0)  -->
<svg version="1.1" id="lm-icon-social" xmlns="http://www.w3.org/2000/svg" xmlns:xlink="http://www.w3.org/1999/xlink" x="0px"
	 y="0px" viewBox="-52 24.9 8.8 8.8" style="enable-background:new -52 24.9 8.8 8.8;" xml:space="preserve">
<style type="text/css">
	.lm-icon-instagram{fill:#676767;}
</style>
<path id="lm-icon-instagram" class="lm-icon-instagram" d="M-45,25h-5.1c-0.9,0-1.7,0.8-1.7,1.7v5.1c0,0.9,0.8,1.7,1.7,1.7h5.1c0.9,0,1.7-0.8,1.7-1.7
	v-5.1C-43.3,25.8-44.1,25-45,25z M-47.6,32.2c-1.6,0-2.9-1.3-2.9-2.9s1.3-2.9,2.9-2.9c1.6,0,2.9,1.3,2.9,2.9
	C-44.8,30.9-46,32.2-47.6,32.2z M-45,27c-0.4,0-0.7-0.3-0.7-0.7c0-0.4,0.3-0.7,0.7-0.7s0.7,0.3,0.7,0.7S-44.5,27-45,27z"/>
<circle id="lm-icon-instagram" class="lm-icon-instagram" cx="-47.6" cy="29.3" r="2"/>
</svg>
