<?xml version="1.0" encoding="utf-8"?>
<!-- Generator: Adobe Illustrator 19.0.0, SVG Export Plug-In . SVG Version: 6.00 Build 0)  -->
<svg version="1.1" id="logo-bayusyaits" xmlns="http://www.w3.org/2000/svg" xmlns:xlink="http://www.w3.org/1999/xlink" x="0px" y="0px"
	 viewBox="0 0 241 110" style="enable-background:new 0 0 241 110;" xml:space="preserve">
<style type="text/css">
	.logo{fill:#FFFFFF;}
</style>
<g>
	<g>
		<path class="logo" d="M1.3,104.3c-0.3,0-0.5,0.1-0.6,0.4c-0.1,0.3-0.2,0.6-0.1,0.8c0.1,0.3,0.5,0.6,0.6,0.9c0.1,0,5.7,0,5.8,0
			c4.6,0,3.5,0,8.1,0c0.1,0,0.1,0,0.2,0c0.3,0,0.6-0.3,0.6-0.6c0-0.1,0-0.3,0-0.4c0-0.6,0-0.6-0.5-0.8c0,0-0.1,0-0.1,0
			c-0.2-0.1-0.2-0.2-0.2-0.4c0-0.7-0.2-1.4-0.4-2.1c-0.1-0.5-0.3-1-0.3-1.5c-0.1-0.8-0.1-1.5-0.2-2.3c0-0.4,0-0.9,0-1.3
			c0.1-2.4,0.4-4.7,0.8-7c0.4-2.2,0.8-4.4,1.3-6.6c0.4-1.9,0.6-3.8,0.5-5.7c-0.1-1.4-0.1-2.9-0.1-4.3c0-0.5,0.2-0.7,0.7-0.6
			c0.3,0.1,0.6,0.2,0.8,0.4c1,0.8,2,1.5,3,2.3c3.2,2.4,6.3,5.2,9.3,7.8c2.3,2,4.3,4.3,6.3,6.6c0.4,0.5,0.7,1,0.9,1.6
			c0.4,1.2,0.7,2.4,1,3.6c0.1,0.3,0.1,0.5,0.3,0.8c0.3,0.5,0.4,1.1,0.5,1.7c0.2,1.2,0.2,2.3,0.1,3.5c0,0.6-0.1,1.2-0.4,1.8
			c-0.4,0.9-0.8,1.7-1.2,2.6c-0.1,0.2-0.1,0.3-0.2,0.5c-0.1,0.4-0.1,0.7,0.1,1c0.1,0.2,0.3,0.4,0.4,0.7c0.1,0.2,0.1,0.4,0,0.5
			c-0.3,0.3-0.4,0.7-0.4,1.1c0.3,0.6,1,0.9,3.3,0c0.2-0.3,0.4-0.5,0.7-0.8c0.6-0.7,1.2-1.4,1.8-2.1c1.8-2.4,3.6-4.9,5.4-7.4
			c0.2-0.3,0.6-0.9,1.2-2c0.9-1.6,1.7-3.3,2.5-5c0,0,0,0,0.1-0.2c-0.1-0.4-0.4-0.6-0.6-0.8c-0.1-0.2-0.7-0.3-1-0.3
			c0.1,0,0.1,0-0.1,0c0,0-0.1,0-0.1,0c-0.4,0-0.9,0.5-1.1,0.8c-0.5,0.9-1.5,2.5-2,3.3c-0.5,0.9-0.7,0.8-1.7,1.1c0,0-0.1,0-0.1,0
			c-0.4,0.2-0.7,0.1-1-0.2c-0.3-0.3-0.4-0.7-0.3-1.1c0.2-1.1,0.4-2.2,0.7-3.2c0.2-0.8,0.3-1.7,0.5-2.5c0.1-0.8,0-1.4-0.6-1.9
			c0,0,0,0-0.1-0.1c-0.7-0.5-0.8-0.5-1.3-0.5c-0.2,0-0.5,0.1-0.7,0c-0.7-0.2-1.3-0.4-1.9-0.7c-1.2-0.5-2.2-1.2-3.2-2
			c-2.3-1.9-4.4-4.1-6.2-6.6c-1.4-1.9-2.9-3.6-4.7-5.1c-0.5-0.5-1.1-0.9-1.6-1.4c-0.2-0.1-0.3-0.3-0.4-0.5c-0.2-0.3-0.2-0.6,0-0.8
			c0.2-0.2,0.2-0.4,0.2-0.6c0-0.1,0-0.3,0-0.4c0.1-1.3,0.3-2.5,0.3-3.8c0-3.8,0-7.7,0-11.5c0-0.2,0-0.3,0-0.5c0-0.3,0.1-0.5,0.4-0.6
			l5-1.2c0.4,0,0.6-1,0.4-1.8c-0.8-3.4-1.5-6.9-2.3-10.4c-0.1-0.3,1.6-1.6,1.8-1.9c0.6-0.7,1.3-1.4,1.9-2.1c0.6-0.6,1.1-1.2,1.5-2.1
			c0,0,0-0.1,0-0.1c0.3-0.4,0.4-0.8,0.5-1.3c0.1-0.4,0-0.7-0.3-1c-3.9-4.2-9.3-7.4-13.2-11.6c-0.3-0.3-0.5-0.6-0.6-1
			c-0.1-0.2-0.2-0.5-0.4-0.7c-0.2-0.3-0.4-0.6-0.7-0.8c-0.2-0.2-0.3-0.4-0.3-0.7c0-0.2,0-0.5,0-0.6c0,0,0,0,0,0
			c-0.1-1.6-0.8-1.1-0.8-1.1c-0.2,0-0.4,0-0.6-0.1c-0.3-0.1-0.9-0.7-1-1.1l0.7-1.9c0-0.5-0.2-2.5,0.2-3.4c0.1-0.3,0.2-0.7,0.2-1
			c-0.1-0.8-0.4-1.4-0.9-2c-0.1-0.1-0.2-0.3-0.2-0.4c0-0.2-0.1-0.4-0.2-0.5c-0.3-0.4-0.7-0.7-1-1.1c-0.1-0.2-0.8-0.6-1-0.7
			c0,0-0.1,0-0.1,0c0,0,0,0-0.1-0.1C14.4,1,14,0.7,13.6,0.6c-0.2-0.1-0.4-0.1-0.6-0.2c-0.2-0.1-1.1-0.1-0.5,0c0,0,0,0,0,0
			c-1.7-0.6-3.3,0.1-4.3,0.7C7.9,1.3,7.6,1.4,7.4,1.7C6.9,2.3,6.5,2.9,5.9,3.4C5.9,3.5,5.8,3.6,5.8,3.6c0.1,0.3,0,0.5-0.1,0.7
			C5.4,4.9,5.3,5.5,5.4,6.2c0,0.2,0,0.4,0,0.6c0,0.1,0,0.2,0,0.3c0,0.2,0,0.4-0.2,0.4C5,7.6,4.9,7.5,4.8,7.3C4.7,7.2,4.7,7.1,4.6,7
			c0-0.1-0.1-0.1-0.2-0.2c0,0.3-0.1,0.6,0,0.8c0.4,0.8,0.7,1.5,1.5,2c0,0.1,0,0.2,0,0.2c0,0.2,0.1,0.4,0.3,0.4
			c0.3,0,0.5,0.3,0.6,0.6c0.4,1.2,1,2.3,1.5,3.4C8.5,14.7,8.9,15,9.4,15c0.1,0,0.2,0,0.2,0c0.1,0,0.1,0.1,0.2,0.1
			c0.1,0.3,0.1,0.5,0.1,0.8c0,0.3-0.1,0.5-0.2,0.8c-0.1,0.3-0.2,0.4-0.3,0.6c-0.4,0.4-0.8,0.9-1.2,1.3C8.1,18.8,8,18.9,8,19
			c-0.1,0.5-0.2,1.1,0.1,1.5c0.1,0.2,0.2,0.5,0.1,0.7c-0.5,2.1-0.9,4.2-1.4,6.3C6.1,31,5.3,34.4,4.4,37.7C3.8,40,2,49.4,1,51.5
			c-0.6,0.7-0.1,1.8-0.2,1.8c-0.3,0.6-0.3,2.7-0.3,3.3c0,1.1,0.2,2.3,0.2,3.4c0,0.2,0.1,0.4,0.3,0.6c0.4,0.4,0.8,0.9,1.2,1.3
			c0,0.1,0.1,0.1,0.1,0.2c0.1,0.1,0.2,0.1,0.4,0c0.1-0.1,0.1-0.2,0.1-0.3c-0.1-0.2-0.2-0.5-0.3-0.7c-0.1-0.1-0.3-0.6-0.4-0.7
			c0,0,0,0,0.3,0.3c0.4,0.4,0.5,0.8,0.9,0.9C3.9,61.7,3.9,62,4.4,62c0.1-0.2,0-0.5-1.2-1.6c0.5,0.5,1.7,0.9,1.9,0.9
			c0.1-0.2,0-0.4-0.1-0.5l-0.6-0.7c-0.6-0.8-0.5-1.3-0.8-2c-0.2-0.3-0.2-0.7-0.1-1.1c1.1,0.1,1.2-0.5,1.8-0.2
			c0.3-0.8,2.2-10.2,2.5-11c0.7-1.9,1.7-4.8,2.5-6.7c0.4-0.9,0.5-1.8,0.8-2.7c0.5-1.3,0.8-2.7,1.3-4c0.1-0.3,0.2-0.7,0.2-1
			c0,0.2,0,0.4,0,0.6c-0.1,1.3-0.3,2.5-0.6,3.7c-0.2,1-1.2,3.3-1.4,4.3l0,0c-0.1,0.4-0.2,0.8-0.3,1.2c-0.4,1.8-0.9,3.9-1,5.8
			c0,0.4,0.1,0.7,0.4,1c0.1,0.1,0.4,0.1,0.6,0.2c0.1,0.1,0.2,0.2,0.2,0.3c0,0-2.3,20.6-0.5,22.3c0,0.3,0.1,0.4,0.4,0.4
			c0.2,0,0.3,0,0.5,0c0,0.2,0,0.4,0,0.6c0,5.6,0,11.2,0,16.8c0,0.5,0,1-0.1,1.4c-0.1,1.8-0.5,3.6-0.8,5.3c-0.1,0.4-0.2,0.8-0.4,1.1
			c-0.5,1-1,1.9-1.6,2.9c-0.1,0.1-0.2,0.3-0.3,0.3c-1.1,0.7-2.1,1.5-3.2,2c-0.9,0.4-1.7,0.7-2.6,0.7c-0.4,0-0.7,0-0.8,0.3
			c-0.1,0.2,0,0.7,0.2,0.9c0.4,0.4,1.3,0.5,1.4,0.7 M26.9,32.2L26.4,33l-1.3-2.7L26.9,32.2z"/>
	</g>
	<path class="logo" d="M51,0.2h5.6v17.6h0.1c1.8-3.8,6.1-5.4,10.9-5.4c10.5,0,15.7,8.3,15.7,18c0,9.7-5.1,17.8-15.6,17.8
		c-3.4,0-8.6-1.3-11-5.3h-0.1v4.6H51V0.2z M66.8,17.4c-7.6,0-10.4,6.5-10.4,12.9c0,6.7,3,12.9,10.8,12.9c7.7,0,10.2-6.5,10.2-13.2
		C77.4,23.6,74.1,17.4,66.8,17.4z"/>
	<path class="logo" d="M120.1,47.2c-1,0.6-2.4,0.9-4,0.9c-2.9,0-4.8-1.6-4.8-5.3c-3.1,3.7-7.3,5.3-12,5.3c-6.2,0-11.3-2.7-11.3-9.6
		c0-7.7,5.7-9.4,11.6-10.5c6.1-1.3,11.5-0.7,11.5-5c0-5-4.1-5.7-7.6-5.7c-4.8,0-8.3,1.5-8.5,6.5h-5.6c0.3-8.4,6.8-11.4,14.5-11.4
		c6.1,0,12.8,1.4,12.8,9.4v17.6c0,2.6,0,3.8,1.8,3.8c0.5,0,1.1-0.1,1.7-0.3V47.2z M111,29.7c-4.4,3.2-17,0.1-17,8.4
		c0,3.7,3.2,5,6.6,5c7.4,0,10.4-4.6,10.4-7.7V29.7z"/>
	<path class="logo" d="M184.2,47.4h-5.6v-5.4h-0.1c-2.4,4.2-6.1,6.2-11.1,6.2c-9,0-11.8-5.1-11.8-12.5V13.2h5.6v23.1
		c0,4.2,2.6,6.9,6.9,6.9c6.8,0,10.1-4.6,10.1-10.7V13.2h5.9V47.4z"/>
	<path class="logo" d="M76.4,85.3c0.2,5,4.6,6.6,9.2,6.6c3.5,0,8.3-0.8,8.3-5.1c0-8.8-22.3-2.8-22.3-16c0-6.9,6.7-9.7,12.7-9.7
		c7.7,0,13.5,2.4,14,10.7h-5.6c-0.3-4.4-4.3-5.7-7.9-5.7c-3.4,0-7.3,0.9-7.3,4.4c0,4,5.9,4.8,11.2,5.9c5.6,1.3,11.2,3.2,11.2,9.7
		c0,8.2-7.6,10.8-14.5,10.8c-7.7,0-14.1-3.1-14.5-11.6H76.4z"/>
	<path id="XMLID_7_" class="logo" d="M152.3,13.2h-5.9l-9.6,27.9h-0.1l-10-27.9h-6.3l13.3,33.3l-14.9,43.4h-0.1l-10-27.9h-6.3
		l13.5,33.9l-2.3,5.8c-1.1,2-2.3,3.1-4.6,3.1c-1.1,0-2.2-0.5-3.3-0.8v5.1c1.3,0.5,2.6,0.6,3.9,0.6c5,0,7.3-2.5,9.9-9.1L152.3,13.2z"
		/>
	<path class="logo" d="M169.9,96c-1,0.6-2.4,0.9-4,0.9c-2.9,0-4.8-1.6-4.8-5.3c-3.1,3.7-7.3,5.3-12,5.3c-6.2,0-11.3-2.7-11.3-9.6
		c0-7.7,5.7-9.4,11.6-10.5c6.1-1.3,11.5-0.7,11.5-5c0-5-4.1-5.7-7.6-5.7c-4.8,0-8.3,1.5-8.5,6.5h-5.6c0.3-8.4,6.8-11.4,14.5-11.4
		c6.1,0,12.8,1.4,12.8,9.4v17.6c0,2.6,0,3.8,1.8,3.8c0.5,0,1.1-0.1,1.7-0.3V96z M160.8,78.5c-4.4,3.2-17,0.1-17,8.4
		c0,3.7,3.2,5,6.6,5c7.4,0,10.4-4.6,10.4-7.7V78.5z"/>
	<rect id="XMLID_4_" x="178.6" y="51.7" class="logo" width="5.6" height="6.9"/>
	<rect id="XMLID_3_" x="178.6" y="62" class="logo" width="5.6" height="34.1"/>
	<path class="logo" d="M200.7,62h6.8v5h-6.8v21.2c0,2.6,0.7,3,4.2,3h2.6v5h-4.3c-5.8,0-8.1-1.2-8.1-7.5V66.9h-5.8v-5h5.8V51.7h5.6V62
		z"/>
	<path class="logo" d="M217.1,85.3c0.2,5,4.6,6.6,9.2,6.6c3.5,0,8.3-0.8,8.3-5.1c0-8.8-22.3-2.8-22.3-16c0-6.9,6.7-9.7,12.7-9.7
		c7.7,0,13.5,2.4,14,10.7h-5.6c-0.3-4.4-4.3-5.7-7.9-5.7c-3.4,0-7.3,0.9-7.3,4.4c0,4,5.9,4.8,11.2,5.9c5.6,1.3,11.2,3.2,11.2,9.7
		c0,8.2-7.6,10.8-14.5,10.8c-7.7,0-14.1-3.1-14.5-11.6H217.1z"/>
</g>
</svg>
