<svg version="1" xmlns="http://www.w3.org/2000/svg" width="889.333" height="889.333" viewBox="0 0 667.000000 667.000000"><path d="M154.5 21.7c-35.6 4.7-64.1 18.7-89.1 43.7-21.8 21.8-35 45.9-41.6 75.9l-2.3 10.2v364l2.8 12c9.1 38.5 31.5 71.3 63.2 92.4 17.2 11.5 33.4 18.4 55 23.2l10 2.3 173 .4c125.3.2 176.2 0 184.5-.8 34.9-3.5 66.4-18.5 91.5-43.5 25-25.1 40-56.6 43.5-91.5.8-8.3 1-59.2.8-184.5l-.4-173-2.3-10c-4.8-21.6-11.7-37.8-23.2-55-21-31.4-53.4-53.7-91.9-63.1l-11.5-2.8-179.5-.2c-98.7-.1-180.8.1-182.5.3zm147.3 54.9c7.7 3.8 14.2 10.2 18.1 17.8 2.6 5.2 3.2 7.2 2.6 9.8-.3 1.8-1 7.6-1.4 12.8-.4 5.2-1.2 10.5-1.9 11.7-2.5 4.6-.4 8.8 4.8 9.5 4.1.6 5 1.7 5 6.3 0 3.1.7 5.1 2.4 7.2 1.3 1.5 3.2 4.6 4.4 6.8 2.7 5.3 15.1 17.1 34.2 32.4 19.5 15.7 31.7 26.7 33.5 30.2 3 5.6-1.4 13.6-15.4 27.8-6.1 6.2-11.1 11.9-11.1 12.7 0 .8 2.5 12.7 5.5 26.5 5.8 26.3 6.3 30 4.3 31.6-.7.6-6.7 2.2-13.2 3.7-6.6 1.5-12.3 2.9-12.8 3.2-.4.3-.8 15-.8 32.7 0 33-1 49.2-3.2 52.7-1.2 1.9-.2 3.1 11.9 14.6 7.5 7.1 16.7 17.1 21.4 23.2 9.7 12.7 28 31.1 36.4 36.7 7 4.6 17.1 8.5 22.1 8.5 2.8 0 4.4.8 7 3.4 1.9 1.9 3.4 4.1 3.4 5 0 .9-1.4 8.7-3.1 17.3-1.7 8.6-2.8 16.7-2.5 17.9.8 3.1 4.7 4 9.4 2.2 3-1.1 4.7-3.1 9.7-11 7.2-11.6 9.1-13.8 12-13.8 2.6 0 7.5 3.6 7.5 5.5 0 .7-3.4 8-7.5 16.1-5.8 11.4-11 19.7-22.3 35.1-21.3 29.1-25.6 34-31.6 35.8-6.1 1.9-7.7 1.9-10.1.1-1.7-1.2-1.8-1.7-.6-5.4 1.2-3.6 1.2-4.4-.3-6.6-.9-1.4-1.6-3.1-1.6-3.8 0-.6 2.1-5.7 4.7-11.2 4.6-9.9 4.7-10.1 4.7-20.5-.1-8.7-.5-12-2.7-18.6-1.4-4.4-3.7-11.9-5.1-16.6-2.9-9.8-4.6-12.4-18-27.2-18-19.9-79.7-71.4-84.4-70.5-1.5.3-1.8 2.9-2.3 22.8-.5 21.2-.7 23.7-4.7 43.6-2.3 11.6-4.9 25.8-5.7 31.5-2 13.9-1.9 33.5.1 42.4.9 3.8 1.9 8.7 2.1 10.8.3 2.3 1.2 4.1 2.5 4.8 1.5.8 1.8 1.9 1.6 4.7l-.3 3.7-35.4.3c-31.9.2-35.6.1-37.3-1.4-3.7-3.5-2-8.4 3.1-8.5h3.6l-3.3-1.6c-2.4-1.3-3.2-2.3-3.2-4.3 0-2.5.4-2.8 5.3-3.3 6.5-.7 13.1-3.5 21.6-9.2 5.9-3.9 7.1-5.3 11.3-13.2 3.8-7.1 5.1-11.1 6.9-20.3 2.1-10.7 2.3-14.7 2.7-60.1l.3-48.5-2.5-1.2c-3.1-1.4-4.4-5.8-5.2-18.2-.9-13.3 1.6-54.7 5.2-88.2.6-5.5.5-5.8-1.8-6.7-1.4-.5-2.8-1.7-3.2-2.6-1.5-3.9 4.7-33.4 10.1-48.5 2.9-7.9 6.8-26.8 5.8-27.8-.1-.2-2.1 5.7-4.4 13-5.1 16.4-7.4 23.3-14.1 41.7-3.4 9.4-7.1 22.9-10.6 38.5-3 13.3-5.6 25.1-5.9 26.3-.4 1.7-1.5 2.3-5 2.9-3.1.4-4.5 1.1-4.5 2.1 0 3.6 2.5 10.1 5.3 13.6 1.6 2.1 2.7 4.1 2.4 4.4-.4.3-2.1 0-3.8-.6l-3.3-1.1 2.4 2.5c1.3 1.4 2.1 2.8 1.8 3.1-.8.7-7-2.5-8.6-4.5-1-1.3-1-1.1-.2 1.3 1.8 4.9-.4 5-4.7.3-4-4.3-4.1-4.7-4.8-13.3-.9-9.8.2-33.3 1.5-34.9 1.5-1.9 4.9-14.3 10-37.2 2.8-12.5 7.1-30.7 9.5-40.3 5-20.1 15.6-68.2 15.6-70.8 0-.9-.3-3.6-.7-5.9-.6-4.1-.4-4.6 4.1-9.8 3.3-3.9 4.9-6.7 5.2-9.4.5-3.6.3-3.9-3.3-5.7-3.4-1.7-4.4-3-8.1-11.4-2.4-5.2-6-11.4-8-13.8-4.4-5.1-7.2-9.9-7.3-12.6 0-1.9 0-1.9 1.3-.1 2.2 2.9 3.7.8 3.7-5.1 0-8.4 1.9-12.9 8-19.3 6.5-6.9 11.4-8.9 21.6-9 5.6-.1 8 .4 12.2 2.5z"/><path d="M358 223.5c.1.6 1.1 2.9 2.4 5.3 2 3.9 2.4 4.2 3.6 2.7 1.2-1.4.9-2.1-2.3-5.3-2-2-3.7-3.2-3.7-2.7z"/></svg>