<svg id="logo-bayusyaits" xmlns="http://www.w3.org/2000/svg" viewBox="0 0 241 110"><style>.logo{fill:#fff}</style><path class="logo" d="M1.3 104.3c-.3 0-.5.1-.6.4-.1.3-.2.6-.1.8.1.3.5.6.6.9h14.1c.3 0 .6-.3.6-.6v-.4c0-.6 0-.6-.5-.8h-.1c-.2-.1-.2-.2-.2-.4 0-.7-.2-1.4-.4-2.1-.1-.5-.3-1-.3-1.5-.1-.8-.1-1.5-.2-2.3V97c.1-2.4.4-4.7.8-7 .4-2.2.8-4.4 1.3-6.6.4-1.9.6-3.8.5-5.7-.1-1.4-.1-2.9-.1-4.3 0-.5.2-.7.7-.6.3.1.6.2.8.4 1 .8 2 1.5 3 2.3 3.2 2.4 6.3 5.2 9.3 7.8 2.3 2 4.3 4.3 6.3 6.6.4.5.7 1 .9 1.6.4 1.2.7 2.4 1 3.6.1.3.1.5.3.8.3.5.4 1.1.5 1.7.2 1.2.2 2.3.1 3.5 0 .6-.1 1.2-.4 1.8-.4.9-.8 1.7-1.2 2.6-.1.2-.1.3-.2.5-.1.4-.1.7.1 1 .1.2.3.4.4.7.1.2.1.4 0 .5-.3.3-.4.7-.4 1.1.3.6 1 .9 3.3 0 .2-.3.4-.5.7-.8l1.8-2.1c1.8-2.4 3.6-4.9 5.4-7.4.2-.3.6-.9 1.2-2 .9-1.6 1.7-3.3 2.5-5l.1-.2c-.1-.4-.4-.6-.6-.8-.1-.2-.7-.3-1-.3h-.2c-.4 0-.9.5-1.1.8-.5.9-1.5 2.5-2 3.3-.5.9-.7.8-1.7 1.1h-.1c-.4.2-.7.1-1-.2-.3-.3-.4-.7-.3-1.1.2-1.1.4-2.2.7-3.2.2-.8.3-1.7.5-2.5.1-.8 0-1.4-.6-1.9l-.1-.1c-.7-.5-.8-.5-1.3-.5-.2 0-.5.1-.7 0-.7-.2-1.3-.4-1.9-.7-1.2-.5-2.2-1.2-3.2-2-2.3-1.9-4.4-4.1-6.2-6.6-1.4-1.9-2.9-3.6-4.7-5.1-.5-.5-1.1-.9-1.6-1.4-.2-.1-.3-.3-.4-.5-.2-.3-.2-.6 0-.8.2-.2.2-.4.2-.6v-.4c.1-1.3.3-2.5.3-3.8v-12c0-.3.1-.5.4-.6l5-1.2c.4 0 .6-1 .4-1.8-.8-3.4-1.5-6.9-2.3-10.4-.1-.3 1.6-1.6 1.8-1.9.6-.7 1.3-1.4 1.9-2.1.6-.6 1.1-1.2 1.5-2.1v-.1c.3-.4.4-.8.5-1.3.1-.4 0-.7-.3-1-3.9-4.2-9.3-7.4-13.2-11.6-.3-.3-.5-.6-.6-1-.1-.2-.2-.5-.4-.7-.2-.3-.4-.6-.7-.8-.2-.2-.3-.4-.3-.7v-.6c-.1-1.6-.8-1.1-.8-1.1-.2 0-.4 0-.6-.1-.3-.1-.9-.7-1-1.1l.7-1.9c0-.5-.2-2.5.2-3.4.1-.3.2-.7.2-1-.1-.8-.4-1.4-.9-2-.1-.1-.2-.3-.2-.4 0-.2-.1-.4-.2-.5-.3-.4-.7-.7-1-1.1-.1-.2-.8-.6-1-.7h-.1l-.1-.1c-.4-.2-.8-.5-1.2-.6-.2-.1-.4-.1-.6-.2-.2-.1-1.1-.1-.5 0-1.7-.6-3.3.1-4.3.7-.3.2-.6.3-.8.6-.5.6-.9 1.2-1.5 1.7 0 .1-.1.2-.1.2.1.3 0 .5-.1.7-.3.6-.4 1.2-.3 1.9v.9c0 .2 0 .4-.2.4-.2.1-.3 0-.4-.2-.1-.1-.1-.2-.2-.3 0-.1-.1-.1-.2-.2 0 .3-.1.6 0 .8.4.8.7 1.5 1.5 2v.2c0 .2.1.4.3.4.3 0 .5.3.6.6.4 1.2 1 2.3 1.5 3.4.2.5.6.8 1.1.8h.2c.1 0 .1.1.2.1.1.3.1.5.1.8 0 .3-.1.5-.2.8-.1.3-.2.4-.3.6-.4.4-.8.9-1.2 1.3-.1.2-.2.3-.2.4-.1.5-.2 1.1.1 1.5.1.2.2.5.1.7-.5 2.1-.9 4.2-1.4 6.3-.7 3.5-1.5 6.9-2.4 10.2C3.8 40 2 49.4 1 51.5c-.6.7-.1 1.8-.2 1.8-.3.6-.3 2.7-.3 3.3 0 1.1.2 2.3.2 3.4 0 .2.1.4.3.6.4.4.8.9 1.2 1.3 0 .1.1.1.1.2.1.1.2.1.4 0 .1-.1.1-.2.1-.3-.1-.2-.2-.5-.3-.7-.1-.1-.3-.6-.4-.7l.3.3c.4.4.5.8.9.9.6.1.6.4 1.1.4.1-.2 0-.5-1.2-1.6.5.5 1.7.9 1.9.9.1-.2 0-.4-.1-.5l-.6-.7c-.6-.8-.5-1.3-.8-2-.2-.3-.2-.7-.1-1.1 1.1.1 1.2-.5 1.8-.2.3-.8 2.2-10.2 2.5-11 .7-1.9 1.7-4.8 2.5-6.7.4-.9.5-1.8.8-2.7.5-1.3.8-2.7 1.3-4 .1-.3.2-.7.2-1v.6c-.1 1.3-.3 2.5-.6 3.7-.2 1-1.2 3.3-1.4 4.3l-.3 1.2c-.4 1.8-.9 3.9-1 5.8 0 .4.1.7.4 1 .1.1.4.1.6.2.1.1.2.2.2.3 0 0-2.3 20.6-.5 22.3 0 .3.1.4.4.4h.5v17.4c0 .5 0 1-.1 1.4-.1 1.8-.5 3.6-.8 5.3-.1.4-.2.8-.4 1.1-.5 1-1 1.9-1.6 2.9-.1.1-.2.3-.3.3-1.1.7-2.1 1.5-3.2 2-.9.4-1.7.7-2.6.7-.4 0-.7 0-.8.3-.1.2 0 .7.2.9.4.4 1.3.5 1.4.7m24.2-72l-.5.8-1.3-2.7 1.8 1.9zM51 .2h5.6v17.6h.1c1.8-3.8 6.1-5.4 10.9-5.4 10.5 0 15.7 8.3 15.7 18s-5.1 17.8-15.6 17.8c-3.4 0-8.6-1.3-11-5.3h-.1v4.6H51V.2zm15.8 17.2c-7.6 0-10.4 6.5-10.4 12.9 0 6.7 3 12.9 10.8 12.9 7.7 0 10.2-6.5 10.2-13.2 0-6.4-3.3-12.6-10.6-12.6zm53.3 29.8c-1 .6-2.4.9-4 .9-2.9 0-4.8-1.6-4.8-5.3-3.1 3.7-7.3 5.3-12 5.3-6.2 0-11.3-2.7-11.3-9.6 0-7.7 5.7-9.4 11.6-10.5 6.1-1.3 11.5-.7 11.5-5 0-5-4.1-5.7-7.6-5.7-4.8 0-8.3 1.5-8.5 6.5h-5.6c.3-8.4 6.8-11.4 14.5-11.4 6.1 0 12.8 1.4 12.8 9.4v17.6c0 2.6 0 3.8 1.8 3.8.5 0 1.1-.1 1.7-.3v4.3zM111 29.7c-4.4 3.2-17 .1-17 8.4 0 3.7 3.2 5 6.6 5 7.4 0 10.4-4.6 10.4-7.7v-5.7zm73.2 17.7h-5.6V42h-.1c-2.4 4.2-6.1 6.2-11.1 6.2-9 0-11.8-5.1-11.8-12.5V13.2h5.6v23.1c0 4.2 2.6 6.9 6.9 6.9 6.8 0 10.1-4.6 10.1-10.7V13.2h5.9v34.2zM76.4 85.3c.2 5 4.6 6.6 9.2 6.6 3.5 0 8.3-.8 8.3-5.1 0-8.8-22.3-2.8-22.3-16 0-6.9 6.7-9.7 12.7-9.7 7.7 0 13.5 2.4 14 10.7h-5.6c-.3-4.4-4.3-5.7-7.9-5.7-3.4 0-7.3.9-7.3 4.4 0 4 5.9 4.8 11.2 5.9 5.6 1.3 11.2 3.2 11.2 9.7 0 8.2-7.6 10.8-14.5 10.8-7.7 0-14.1-3.1-14.5-11.6h5.5z"/><path id="XMLID_7_" class="logo" d="M152.3 13.2h-5.9l-9.6 27.9h-.1l-10-27.9h-6.3l13.3 33.3-14.9 43.4h-.1l-10-27.9h-6.3l13.5 33.9-2.3 5.8c-1.1 2-2.3 3.1-4.6 3.1-1.1 0-2.2-.5-3.3-.8v5.1c1.3.5 2.6.6 3.9.6 5 0 7.3-2.5 9.9-9.1l32.8-87.4z"/><path class="logo" d="M169.9 96c-1 .6-2.4.9-4 .9-2.9 0-4.8-1.6-4.8-5.3-3.1 3.7-7.3 5.3-12 5.3-6.2 0-11.3-2.7-11.3-9.6 0-7.7 5.7-9.4 11.6-10.5 6.1-1.3 11.5-.7 11.5-5 0-5-4.1-5.7-7.6-5.7-4.8 0-8.3 1.5-8.5 6.5h-5.6c.3-8.4 6.8-11.4 14.5-11.4 6.1 0 12.8 1.4 12.8 9.4v17.6c0 2.6 0 3.8 1.8 3.8.5 0 1.1-.1 1.7-.3V96zm-9.1-17.5c-4.4 3.2-17 .1-17 8.4 0 3.7 3.2 5 6.6 5 7.4 0 10.4-4.6 10.4-7.7v-5.7z"/><path id="XMLID_4_" class="logo" d="M178.6 51.7h5.6v6.9h-5.6z"/><path id="XMLID_3_" class="logo" d="M178.6 62h5.6v34.1h-5.6z"/><path class="logo" d="M200.7 62h6.8v5h-6.8v21.2c0 2.6.7 3 4.2 3h2.6v5h-4.3c-5.8 0-8.1-1.2-8.1-7.5V66.9h-5.8v-5h5.8V51.7h5.6V62zm16.4 23.3c.2 5 4.6 6.6 9.2 6.6 3.5 0 8.3-.8 8.3-5.1 0-8.8-22.3-2.8-22.3-16 0-6.9 6.7-9.7 12.7-9.7 7.7 0 13.5 2.4 14 10.7h-5.6c-.3-4.4-4.3-5.7-7.9-5.7-3.4 0-7.3.9-7.3 4.4 0 4 5.9 4.8 11.2 5.9 5.6 1.3 11.2 3.2 11.2 9.7 0 8.2-7.6 10.8-14.5 10.8-7.7 0-14.1-3.1-14.5-11.6h5.5z"/></svg>